<mxfile host="app.diagrams.net" agent="Mozilla/5.0 (Windows NT 10.0; Win64; x64) AppleWebKit/537.36 (KHTML, like Gecko) Chrome/138.0.0.0 YaBrowser/25.8.0.0 Safari/537.36" version="28.2.5">
  <diagram name="Страница — 1" id="_ijX1Y52g_BesRfUZ9vy">
    <mxGraphModel dx="426" dy="455" grid="1" gridSize="10" guides="1" tooltips="1" connect="1" arrows="1" fold="1" page="1" pageScale="1" pageWidth="827" pageHeight="1169" math="0" shadow="0">
      <root>
        <mxCell id="0" />
        <mxCell id="1" parent="0" />
        <mxCell id="XMz7dB00b7zc_NJ-H7u2-2" value="users" style="swimlane;fontStyle=0;childLayout=stackLayout;horizontal=1;startSize=30;horizontalStack=0;resizeParent=1;resizeParentMax=0;resizeLast=0;collapsible=1;marginBottom=0;whiteSpace=wrap;html=1;" vertex="1" parent="1">
          <mxGeometry x="440" y="330" width="140" height="330" as="geometry" />
        </mxCell>
        <mxCell id="XMz7dB00b7zc_NJ-H7u2-3" value="id: UUID" style="text;strokeColor=none;fillColor=none;align=left;verticalAlign=middle;spacingLeft=4;spacingRight=4;overflow=hidden;points=[[0,0.5],[1,0.5]];portConstraint=eastwest;rotatable=0;whiteSpace=wrap;html=1;" vertex="1" parent="XMz7dB00b7zc_NJ-H7u2-2">
          <mxGeometry y="30" width="140" height="30" as="geometry" />
        </mxCell>
        <mxCell id="XMz7dB00b7zc_NJ-H7u2-4" value="first_name: str" style="text;strokeColor=none;fillColor=none;align=left;verticalAlign=middle;spacingLeft=4;spacingRight=4;overflow=hidden;points=[[0,0.5],[1,0.5]];portConstraint=eastwest;rotatable=0;whiteSpace=wrap;html=1;" vertex="1" parent="XMz7dB00b7zc_NJ-H7u2-2">
          <mxGeometry y="60" width="140" height="30" as="geometry" />
        </mxCell>
        <mxCell id="XMz7dB00b7zc_NJ-H7u2-8" value="last_name: str" style="text;strokeColor=none;fillColor=none;align=left;verticalAlign=middle;spacingLeft=4;spacingRight=4;overflow=hidden;points=[[0,0.5],[1,0.5]];portConstraint=eastwest;rotatable=0;whiteSpace=wrap;html=1;" vertex="1" parent="XMz7dB00b7zc_NJ-H7u2-2">
          <mxGeometry y="90" width="140" height="30" as="geometry" />
        </mxCell>
        <mxCell id="XMz7dB00b7zc_NJ-H7u2-5" value="middle_name: str" style="text;strokeColor=none;fillColor=none;align=left;verticalAlign=middle;spacingLeft=4;spacingRight=4;overflow=hidden;points=[[0,0.5],[1,0.5]];portConstraint=eastwest;rotatable=0;whiteSpace=wrap;html=1;" vertex="1" parent="XMz7dB00b7zc_NJ-H7u2-2">
          <mxGeometry y="120" width="140" height="30" as="geometry" />
        </mxCell>
        <mxCell id="XMz7dB00b7zc_NJ-H7u2-7" value="&lt;span style=&quot;background-color: transparent; font-family: inherit; font-style: inherit; font-variant-ligatures: inherit; font-variant-caps: inherit; font-weight: inherit; white-space: inherit; color: rgb(12, 13, 14); font-size: 13px;&quot;&gt;birth_date&lt;/span&gt;: datetime" style="text;strokeColor=none;fillColor=none;align=left;verticalAlign=middle;spacingLeft=4;spacingRight=4;overflow=hidden;points=[[0,0.5],[1,0.5]];portConstraint=eastwest;rotatable=0;whiteSpace=wrap;html=1;" vertex="1" parent="XMz7dB00b7zc_NJ-H7u2-2">
          <mxGeometry y="150" width="140" height="30" as="geometry" />
        </mxCell>
        <mxCell id="XMz7dB00b7zc_NJ-H7u2-10" value="email: str" style="text;strokeColor=none;fillColor=none;align=left;verticalAlign=middle;spacingLeft=4;spacingRight=4;overflow=hidden;points=[[0,0.5],[1,0.5]];portConstraint=eastwest;rotatable=0;whiteSpace=wrap;html=1;" vertex="1" parent="XMz7dB00b7zc_NJ-H7u2-2">
          <mxGeometry y="180" width="140" height="30" as="geometry" />
        </mxCell>
        <mxCell id="XMz7dB00b7zc_NJ-H7u2-9" value="phone: int" style="text;strokeColor=none;fillColor=none;align=left;verticalAlign=middle;spacingLeft=4;spacingRight=4;overflow=hidden;points=[[0,0.5],[1,0.5]];portConstraint=eastwest;rotatable=0;whiteSpace=wrap;html=1;" vertex="1" parent="XMz7dB00b7zc_NJ-H7u2-2">
          <mxGeometry y="210" width="140" height="30" as="geometry" />
        </mxCell>
        <mxCell id="XMz7dB00b7zc_NJ-H7u2-79" value="img: UUID" style="text;strokeColor=none;fillColor=none;align=left;verticalAlign=middle;spacingLeft=4;spacingRight=4;overflow=hidden;points=[[0,0.5],[1,0.5]];portConstraint=eastwest;rotatable=0;whiteSpace=wrap;html=1;" vertex="1" parent="XMz7dB00b7zc_NJ-H7u2-2">
          <mxGeometry y="240" width="140" height="30" as="geometry" />
        </mxCell>
        <mxCell id="XMz7dB00b7zc_NJ-H7u2-11" value="created_at: datetime" style="text;strokeColor=none;fillColor=none;align=left;verticalAlign=middle;spacingLeft=4;spacingRight=4;overflow=hidden;points=[[0,0.5],[1,0.5]];portConstraint=eastwest;rotatable=0;whiteSpace=wrap;html=1;" vertex="1" parent="XMz7dB00b7zc_NJ-H7u2-2">
          <mxGeometry y="270" width="140" height="30" as="geometry" />
        </mxCell>
        <mxCell id="XMz7dB00b7zc_NJ-H7u2-12" value="updated_at: datetime" style="text;strokeColor=none;fillColor=none;align=left;verticalAlign=middle;spacingLeft=4;spacingRight=4;overflow=hidden;points=[[0,0.5],[1,0.5]];portConstraint=eastwest;rotatable=0;whiteSpace=wrap;html=1;" vertex="1" parent="XMz7dB00b7zc_NJ-H7u2-2">
          <mxGeometry y="300" width="140" height="30" as="geometry" />
        </mxCell>
        <mxCell id="XMz7dB00b7zc_NJ-H7u2-13" value="addresses" style="swimlane;fontStyle=0;childLayout=stackLayout;horizontal=1;startSize=30;horizontalStack=0;resizeParent=1;resizeParentMax=0;resizeLast=0;collapsible=1;marginBottom=0;whiteSpace=wrap;html=1;" vertex="1" parent="1">
          <mxGeometry x="400" y="680" width="160" height="330" as="geometry" />
        </mxCell>
        <mxCell id="XMz7dB00b7zc_NJ-H7u2-14" value="id: UUID&amp;nbsp;(primary key)" style="text;strokeColor=none;fillColor=none;align=left;verticalAlign=middle;spacingLeft=4;spacingRight=4;overflow=hidden;points=[[0,0.5],[1,0.5]];portConstraint=eastwest;rotatable=0;whiteSpace=wrap;html=1;" vertex="1" parent="XMz7dB00b7zc_NJ-H7u2-13">
          <mxGeometry y="30" width="160" height="30" as="geometry" />
        </mxCell>
        <mxCell id="XMz7dB00b7zc_NJ-H7u2-15" value="id_user: UUID (foreign key)" style="text;strokeColor=none;fillColor=none;align=left;verticalAlign=middle;spacingLeft=4;spacingRight=4;overflow=hidden;points=[[0,0.5],[1,0.5]];portConstraint=eastwest;rotatable=0;whiteSpace=wrap;html=1;" vertex="1" parent="XMz7dB00b7zc_NJ-H7u2-13">
          <mxGeometry y="60" width="160" height="30" as="geometry" />
        </mxCell>
        <mxCell id="XMz7dB00b7zc_NJ-H7u2-16" value="&lt;span style=&quot;white-space-collapse: preserve;&quot; data-src-align=&quot;0:6&quot; class=&quot;aNeGP0gI0B9AV8JaHPyH&quot;&gt;country&lt;/span&gt;: str" style="text;strokeColor=none;fillColor=none;align=left;verticalAlign=middle;spacingLeft=4;spacingRight=4;overflow=hidden;points=[[0,0.5],[1,0.5]];portConstraint=eastwest;rotatable=0;whiteSpace=wrap;html=1;" vertex="1" parent="XMz7dB00b7zc_NJ-H7u2-13">
          <mxGeometry y="90" width="160" height="30" as="geometry" />
        </mxCell>
        <mxCell id="XMz7dB00b7zc_NJ-H7u2-17" value="&lt;span style=&quot;white-space-collapse: preserve;&quot; data-src-align=&quot;0:6&quot; class=&quot;aNeGP0gI0B9AV8JaHPyH&quot;&gt;region&lt;/span&gt;: str" style="text;strokeColor=none;fillColor=none;align=left;verticalAlign=middle;spacingLeft=4;spacingRight=4;overflow=hidden;points=[[0,0.5],[1,0.5]];portConstraint=eastwest;rotatable=0;whiteSpace=wrap;html=1;" vertex="1" parent="XMz7dB00b7zc_NJ-H7u2-13">
          <mxGeometry y="120" width="160" height="30" as="geometry" />
        </mxCell>
        <mxCell id="XMz7dB00b7zc_NJ-H7u2-18" value="&lt;span style=&quot;white-space-collapse: preserve;&quot; data-src-align=&quot;0:5&quot; class=&quot;aNeGP0gI0B9AV8JaHPyH&quot;&gt;city: str&lt;/span&gt;" style="text;strokeColor=none;fillColor=none;align=left;verticalAlign=middle;spacingLeft=4;spacingRight=4;overflow=hidden;points=[[0,0.5],[1,0.5]];portConstraint=eastwest;rotatable=0;whiteSpace=wrap;html=1;" vertex="1" parent="XMz7dB00b7zc_NJ-H7u2-13">
          <mxGeometry y="150" width="160" height="30" as="geometry" />
        </mxCell>
        <mxCell id="XMz7dB00b7zc_NJ-H7u2-19" value="&lt;span style=&quot;white-space-collapse: preserve;&quot; data-src-align=&quot;0:5&quot; class=&quot;aNeGP0gI0B9AV8JaHPyH&quot;&gt;street&lt;/span&gt;: str" style="text;strokeColor=none;fillColor=none;align=left;verticalAlign=middle;spacingLeft=4;spacingRight=4;overflow=hidden;points=[[0,0.5],[1,0.5]];portConstraint=eastwest;rotatable=0;whiteSpace=wrap;html=1;" vertex="1" parent="XMz7dB00b7zc_NJ-H7u2-13">
          <mxGeometry y="180" width="160" height="30" as="geometry" />
        </mxCell>
        <mxCell id="XMz7dB00b7zc_NJ-H7u2-20" value="&lt;span style=&quot;white-space-collapse: preserve;&quot; data-src-align=&quot;0:5&quot; class=&quot;aNeGP0gI0B9AV8JaHPyH&quot;&gt;house_number&lt;/span&gt;: str" style="text;strokeColor=none;fillColor=none;align=left;verticalAlign=middle;spacingLeft=4;spacingRight=4;overflow=hidden;points=[[0,0.5],[1,0.5]];portConstraint=eastwest;rotatable=0;whiteSpace=wrap;html=1;" vertex="1" parent="XMz7dB00b7zc_NJ-H7u2-13">
          <mxGeometry y="210" width="160" height="30" as="geometry" />
        </mxCell>
        <mxCell id="XMz7dB00b7zc_NJ-H7u2-21" value="&lt;span style=&quot;white-space-collapse: preserve;&quot;&gt;quadrature_&lt;/span&gt;&lt;span style=&quot;white-space-collapse: preserve;&quot; data-src-align=&quot;0:14&quot; class=&quot;aNeGP0gI0B9AV8JaHPyH&quot;&gt;number&lt;/span&gt;: str" style="text;strokeColor=none;fillColor=none;align=left;verticalAlign=middle;spacingLeft=4;spacingRight=4;overflow=hidden;points=[[0,0.5],[1,0.5]];portConstraint=eastwest;rotatable=0;whiteSpace=wrap;html=1;" vertex="1" parent="XMz7dB00b7zc_NJ-H7u2-13">
          <mxGeometry y="240" width="160" height="30" as="geometry" />
        </mxCell>
        <mxCell id="XMz7dB00b7zc_NJ-H7u2-22" value="created_at: datetime" style="text;strokeColor=none;fillColor=none;align=left;verticalAlign=middle;spacingLeft=4;spacingRight=4;overflow=hidden;points=[[0,0.5],[1,0.5]];portConstraint=eastwest;rotatable=0;whiteSpace=wrap;html=1;" vertex="1" parent="XMz7dB00b7zc_NJ-H7u2-13">
          <mxGeometry y="270" width="160" height="30" as="geometry" />
        </mxCell>
        <mxCell id="XMz7dB00b7zc_NJ-H7u2-23" value="updated_at: datetime" style="text;strokeColor=none;fillColor=none;align=left;verticalAlign=middle;spacingLeft=4;spacingRight=4;overflow=hidden;points=[[0,0.5],[1,0.5]];portConstraint=eastwest;rotatable=0;whiteSpace=wrap;html=1;" vertex="1" parent="XMz7dB00b7zc_NJ-H7u2-13">
          <mxGeometry y="300" width="160" height="30" as="geometry" />
        </mxCell>
        <mxCell id="XMz7dB00b7zc_NJ-H7u2-24" value="&lt;span style=&quot;white-space-collapse: preserve;&quot; data-src-align=&quot;0:7&quot; class=&quot;aNeGP0gI0B9AV8JaHPyH&quot;&gt;baskets&lt;/span&gt;" style="swimlane;fontStyle=0;childLayout=stackLayout;horizontal=1;startSize=30;horizontalStack=0;resizeParent=1;resizeParentMax=0;resizeLast=0;collapsible=1;marginBottom=0;whiteSpace=wrap;html=1;" vertex="1" parent="1">
          <mxGeometry x="655" y="500" width="190" height="240" as="geometry" />
        </mxCell>
        <mxCell id="XMz7dB00b7zc_NJ-H7u2-25" value="id: UUID&amp;nbsp;(primary key)" style="text;strokeColor=none;fillColor=none;align=left;verticalAlign=middle;spacingLeft=4;spacingRight=4;overflow=hidden;points=[[0,0.5],[1,0.5]];portConstraint=eastwest;rotatable=0;whiteSpace=wrap;html=1;" vertex="1" parent="XMz7dB00b7zc_NJ-H7u2-24">
          <mxGeometry y="30" width="190" height="30" as="geometry" />
        </mxCell>
        <mxCell id="XMz7dB00b7zc_NJ-H7u2-26" value="id_user: UUID (foreign key)" style="text;strokeColor=none;fillColor=none;align=left;verticalAlign=middle;spacingLeft=4;spacingRight=4;overflow=hidden;points=[[0,0.5],[1,0.5]];portConstraint=eastwest;rotatable=0;whiteSpace=wrap;html=1;" vertex="1" parent="XMz7dB00b7zc_NJ-H7u2-24">
          <mxGeometry y="60" width="190" height="30" as="geometry" />
        </mxCell>
        <mxCell id="XMz7dB00b7zc_NJ-H7u2-27" value="id_product: UUID&amp;nbsp;(foreign key)" style="text;strokeColor=none;fillColor=none;align=left;verticalAlign=middle;spacingLeft=4;spacingRight=4;overflow=hidden;points=[[0,0.5],[1,0.5]];portConstraint=eastwest;rotatable=0;whiteSpace=wrap;html=1;" vertex="1" parent="XMz7dB00b7zc_NJ-H7u2-24">
          <mxGeometry y="90" width="190" height="30" as="geometry" />
        </mxCell>
        <mxCell id="XMz7dB00b7zc_NJ-H7u2-28" value="&lt;span style=&quot;white-space-collapse: preserve;&quot;&gt;count&lt;/span&gt;: str" style="text;strokeColor=none;fillColor=none;align=left;verticalAlign=middle;spacingLeft=4;spacingRight=4;overflow=hidden;points=[[0,0.5],[1,0.5]];portConstraint=eastwest;rotatable=0;whiteSpace=wrap;html=1;" vertex="1" parent="XMz7dB00b7zc_NJ-H7u2-24">
          <mxGeometry y="120" width="190" height="30" as="geometry" />
        </mxCell>
        <mxCell id="XMz7dB00b7zc_NJ-H7u2-52" value="&lt;span style=&quot;white-space-collapse: preserve;&quot;&gt;size&lt;/span&gt;: str" style="text;strokeColor=none;fillColor=none;align=left;verticalAlign=middle;spacingLeft=4;spacingRight=4;overflow=hidden;points=[[0,0.5],[1,0.5]];portConstraint=eastwest;rotatable=0;whiteSpace=wrap;html=1;" vertex="1" parent="XMz7dB00b7zc_NJ-H7u2-24">
          <mxGeometry y="150" width="190" height="30" as="geometry" />
        </mxCell>
        <mxCell id="XMz7dB00b7zc_NJ-H7u2-29" value="created_at: datetime" style="text;strokeColor=none;fillColor=none;align=left;verticalAlign=middle;spacingLeft=4;spacingRight=4;overflow=hidden;points=[[0,0.5],[1,0.5]];portConstraint=eastwest;rotatable=0;whiteSpace=wrap;html=1;" vertex="1" parent="XMz7dB00b7zc_NJ-H7u2-24">
          <mxGeometry y="180" width="190" height="30" as="geometry" />
        </mxCell>
        <mxCell id="XMz7dB00b7zc_NJ-H7u2-30" value="updated_at: datetime" style="text;strokeColor=none;fillColor=none;align=left;verticalAlign=middle;spacingLeft=4;spacingRight=4;overflow=hidden;points=[[0,0.5],[1,0.5]];portConstraint=eastwest;rotatable=0;whiteSpace=wrap;html=1;" vertex="1" parent="XMz7dB00b7zc_NJ-H7u2-24">
          <mxGeometry y="210" width="190" height="30" as="geometry" />
        </mxCell>
        <mxCell id="XMz7dB00b7zc_NJ-H7u2-31" value="&lt;span style=&quot;white-space-collapse: preserve;&quot; data-src-align=&quot;0:5&quot; class=&quot;aNeGP0gI0B9AV8JaHPyH&quot;&gt;orders&lt;/span&gt;" style="swimlane;fontStyle=0;childLayout=stackLayout;horizontal=1;startSize=30;horizontalStack=0;resizeParent=1;resizeParentMax=0;resizeLast=0;collapsible=1;marginBottom=0;whiteSpace=wrap;html=1;" vertex="1" parent="1">
          <mxGeometry x="655" y="810" width="200" height="180" as="geometry" />
        </mxCell>
        <mxCell id="XMz7dB00b7zc_NJ-H7u2-32" value="id: UUID&amp;nbsp;(primary key)" style="text;strokeColor=none;fillColor=none;align=left;verticalAlign=middle;spacingLeft=4;spacingRight=4;overflow=hidden;points=[[0,0.5],[1,0.5]];portConstraint=eastwest;rotatable=0;whiteSpace=wrap;html=1;" vertex="1" parent="XMz7dB00b7zc_NJ-H7u2-31">
          <mxGeometry y="30" width="200" height="30" as="geometry" />
        </mxCell>
        <mxCell id="XMz7dB00b7zc_NJ-H7u2-33" value="id_user: UUID (foreign key)" style="text;strokeColor=none;fillColor=none;align=left;verticalAlign=middle;spacingLeft=4;spacingRight=4;overflow=hidden;points=[[0,0.5],[1,0.5]];portConstraint=eastwest;rotatable=0;whiteSpace=wrap;html=1;" vertex="1" parent="XMz7dB00b7zc_NJ-H7u2-31">
          <mxGeometry y="60" width="200" height="30" as="geometry" />
        </mxCell>
        <mxCell id="XMz7dB00b7zc_NJ-H7u2-34" value="id_addresses: UUID&amp;nbsp;&amp;nbsp;(foreign key)" style="text;strokeColor=none;fillColor=none;align=left;verticalAlign=middle;spacingLeft=4;spacingRight=4;overflow=hidden;points=[[0,0.5],[1,0.5]];portConstraint=eastwest;rotatable=0;whiteSpace=wrap;html=1;" vertex="1" parent="XMz7dB00b7zc_NJ-H7u2-31">
          <mxGeometry y="90" width="200" height="30" as="geometry" />
        </mxCell>
        <mxCell id="XMz7dB00b7zc_NJ-H7u2-35" value="created_at: datetime" style="text;strokeColor=none;fillColor=none;align=left;verticalAlign=middle;spacingLeft=4;spacingRight=4;overflow=hidden;points=[[0,0.5],[1,0.5]];portConstraint=eastwest;rotatable=0;whiteSpace=wrap;html=1;" vertex="1" parent="XMz7dB00b7zc_NJ-H7u2-31">
          <mxGeometry y="120" width="200" height="30" as="geometry" />
        </mxCell>
        <mxCell id="XMz7dB00b7zc_NJ-H7u2-36" value="updated_at: datetime" style="text;strokeColor=none;fillColor=none;align=left;verticalAlign=middle;spacingLeft=4;spacingRight=4;overflow=hidden;points=[[0,0.5],[1,0.5]];portConstraint=eastwest;rotatable=0;whiteSpace=wrap;html=1;" vertex="1" parent="XMz7dB00b7zc_NJ-H7u2-31">
          <mxGeometry y="150" width="200" height="30" as="geometry" />
        </mxCell>
        <mxCell id="XMz7dB00b7zc_NJ-H7u2-37" value="&lt;span style=&quot;white-space-collapse: preserve;&quot;&gt;orders_products&lt;/span&gt;" style="swimlane;fontStyle=0;childLayout=stackLayout;horizontal=1;startSize=30;horizontalStack=0;resizeParent=1;resizeParentMax=0;resizeLast=0;collapsible=1;marginBottom=0;whiteSpace=wrap;html=1;" vertex="1" parent="1">
          <mxGeometry x="910" y="530" width="180" height="300" as="geometry" />
        </mxCell>
        <mxCell id="XMz7dB00b7zc_NJ-H7u2-38" value="id: UUID&amp;nbsp;(primary key)" style="text;strokeColor=none;fillColor=none;align=left;verticalAlign=middle;spacingLeft=4;spacingRight=4;overflow=hidden;points=[[0,0.5],[1,0.5]];portConstraint=eastwest;rotatable=0;whiteSpace=wrap;html=1;" vertex="1" parent="XMz7dB00b7zc_NJ-H7u2-37">
          <mxGeometry y="30" width="180" height="30" as="geometry" />
        </mxCell>
        <mxCell id="XMz7dB00b7zc_NJ-H7u2-39" value="id_order: UUID&amp;nbsp;&amp;nbsp;(foreign key)" style="text;strokeColor=none;fillColor=none;align=left;verticalAlign=middle;spacingLeft=4;spacingRight=4;overflow=hidden;points=[[0,0.5],[1,0.5]];portConstraint=eastwest;rotatable=0;whiteSpace=wrap;html=1;" vertex="1" parent="XMz7dB00b7zc_NJ-H7u2-37">
          <mxGeometry y="60" width="180" height="30" as="geometry" />
        </mxCell>
        <mxCell id="XMz7dB00b7zc_NJ-H7u2-40" value="id_product: UUID&amp;nbsp;(foreign key)" style="text;strokeColor=none;fillColor=none;align=left;verticalAlign=middle;spacingLeft=4;spacingRight=4;overflow=hidden;points=[[0,0.5],[1,0.5]];portConstraint=eastwest;rotatable=0;whiteSpace=wrap;html=1;" vertex="1" parent="XMz7dB00b7zc_NJ-H7u2-37">
          <mxGeometry y="90" width="180" height="30" as="geometry" />
        </mxCell>
        <mxCell id="XMz7dB00b7zc_NJ-H7u2-41" value="&lt;span style=&quot;white-space-collapse: preserve;&quot; data-src-align=&quot;0:6&quot; class=&quot;aNeGP0gI0B9AV8JaHPyH&quot;&gt;count&lt;/span&gt;: int" style="text;strokeColor=none;fillColor=none;align=left;verticalAlign=middle;spacingLeft=4;spacingRight=4;overflow=hidden;points=[[0,0.5],[1,0.5]];portConstraint=eastwest;rotatable=0;whiteSpace=wrap;html=1;" vertex="1" parent="XMz7dB00b7zc_NJ-H7u2-37">
          <mxGeometry y="120" width="180" height="30" as="geometry" />
        </mxCell>
        <mxCell id="XMz7dB00b7zc_NJ-H7u2-53" value="&lt;span style=&quot;white-space-collapse: preserve;&quot;&gt;size&lt;/span&gt;: str" style="text;strokeColor=none;fillColor=none;align=left;verticalAlign=middle;spacingLeft=4;spacingRight=4;overflow=hidden;points=[[0,0.5],[1,0.5]];portConstraint=eastwest;rotatable=0;whiteSpace=wrap;html=1;" vertex="1" parent="XMz7dB00b7zc_NJ-H7u2-37">
          <mxGeometry y="150" width="180" height="30" as="geometry" />
        </mxCell>
        <mxCell id="XMz7dB00b7zc_NJ-H7u2-42" value="&lt;span style=&quot;white-space-collapse: preserve;&quot;&gt;price: float&lt;/span&gt;" style="text;strokeColor=none;fillColor=none;align=left;verticalAlign=middle;spacingLeft=4;spacingRight=4;overflow=hidden;points=[[0,0.5],[1,0.5]];portConstraint=eastwest;rotatable=0;whiteSpace=wrap;html=1;" vertex="1" parent="XMz7dB00b7zc_NJ-H7u2-37">
          <mxGeometry y="180" width="180" height="30" as="geometry" />
        </mxCell>
        <mxCell id="XMz7dB00b7zc_NJ-H7u2-43" value="&lt;span style=&quot;white-space-collapse: preserve;&quot; data-src-align=&quot;0:6&quot; class=&quot;aNeGP0gI0B9AV8JaHPyH&quot;&gt;discount: float&lt;/span&gt;" style="text;strokeColor=none;fillColor=none;align=left;verticalAlign=middle;spacingLeft=4;spacingRight=4;overflow=hidden;points=[[0,0.5],[1,0.5]];portConstraint=eastwest;rotatable=0;whiteSpace=wrap;html=1;" vertex="1" parent="XMz7dB00b7zc_NJ-H7u2-37">
          <mxGeometry y="210" width="180" height="30" as="geometry" />
        </mxCell>
        <mxCell id="XMz7dB00b7zc_NJ-H7u2-44" value="created_at: datetime" style="text;strokeColor=none;fillColor=none;align=left;verticalAlign=middle;spacingLeft=4;spacingRight=4;overflow=hidden;points=[[0,0.5],[1,0.5]];portConstraint=eastwest;rotatable=0;whiteSpace=wrap;html=1;" vertex="1" parent="XMz7dB00b7zc_NJ-H7u2-37">
          <mxGeometry y="240" width="180" height="30" as="geometry" />
        </mxCell>
        <mxCell id="XMz7dB00b7zc_NJ-H7u2-45" value="updated_at: datetime" style="text;strokeColor=none;fillColor=none;align=left;verticalAlign=middle;spacingLeft=4;spacingRight=4;overflow=hidden;points=[[0,0.5],[1,0.5]];portConstraint=eastwest;rotatable=0;whiteSpace=wrap;html=1;" vertex="1" parent="XMz7dB00b7zc_NJ-H7u2-37">
          <mxGeometry y="270" width="180" height="30" as="geometry" />
        </mxCell>
        <mxCell id="XMz7dB00b7zc_NJ-H7u2-46" value="&lt;span style=&quot;white-space-collapse: preserve;&quot; data-src-align=&quot;0:9&quot; class=&quot;aNeGP0gI0B9AV8JaHPyH&quot;&gt;favorites&lt;/span&gt;" style="swimlane;fontStyle=0;childLayout=stackLayout;horizontal=1;startSize=30;horizontalStack=0;resizeParent=1;resizeParentMax=0;resizeLast=0;collapsible=1;marginBottom=0;whiteSpace=wrap;html=1;" vertex="1" parent="1">
          <mxGeometry x="650" y="300" width="190" height="180" as="geometry" />
        </mxCell>
        <mxCell id="XMz7dB00b7zc_NJ-H7u2-47" value="id: UUID&amp;nbsp;(primary key)" style="text;strokeColor=none;fillColor=none;align=left;verticalAlign=middle;spacingLeft=4;spacingRight=4;overflow=hidden;points=[[0,0.5],[1,0.5]];portConstraint=eastwest;rotatable=0;whiteSpace=wrap;html=1;" vertex="1" parent="XMz7dB00b7zc_NJ-H7u2-46">
          <mxGeometry y="30" width="190" height="30" as="geometry" />
        </mxCell>
        <mxCell id="XMz7dB00b7zc_NJ-H7u2-48" value="id_user: UUID (foreign key)" style="text;strokeColor=none;fillColor=none;align=left;verticalAlign=middle;spacingLeft=4;spacingRight=4;overflow=hidden;points=[[0,0.5],[1,0.5]];portConstraint=eastwest;rotatable=0;whiteSpace=wrap;html=1;" vertex="1" parent="XMz7dB00b7zc_NJ-H7u2-46">
          <mxGeometry y="60" width="190" height="30" as="geometry" />
        </mxCell>
        <mxCell id="XMz7dB00b7zc_NJ-H7u2-49" value="id_product: UUID&amp;nbsp;(foreign key)" style="text;strokeColor=none;fillColor=none;align=left;verticalAlign=middle;spacingLeft=4;spacingRight=4;overflow=hidden;points=[[0,0.5],[1,0.5]];portConstraint=eastwest;rotatable=0;whiteSpace=wrap;html=1;" vertex="1" parent="XMz7dB00b7zc_NJ-H7u2-46">
          <mxGeometry y="90" width="190" height="30" as="geometry" />
        </mxCell>
        <mxCell id="XMz7dB00b7zc_NJ-H7u2-50" value="created_at: datetime" style="text;strokeColor=none;fillColor=none;align=left;verticalAlign=middle;spacingLeft=4;spacingRight=4;overflow=hidden;points=[[0,0.5],[1,0.5]];portConstraint=eastwest;rotatable=0;whiteSpace=wrap;html=1;" vertex="1" parent="XMz7dB00b7zc_NJ-H7u2-46">
          <mxGeometry y="120" width="190" height="30" as="geometry" />
        </mxCell>
        <mxCell id="XMz7dB00b7zc_NJ-H7u2-51" value="updated_at: datetime" style="text;strokeColor=none;fillColor=none;align=left;verticalAlign=middle;spacingLeft=4;spacingRight=4;overflow=hidden;points=[[0,0.5],[1,0.5]];portConstraint=eastwest;rotatable=0;whiteSpace=wrap;html=1;" vertex="1" parent="XMz7dB00b7zc_NJ-H7u2-46">
          <mxGeometry y="150" width="190" height="30" as="geometry" />
        </mxCell>
        <mxCell id="XMz7dB00b7zc_NJ-H7u2-54" style="edgeStyle=orthogonalEdgeStyle;rounded=0;orthogonalLoop=1;jettySize=auto;html=1;exitX=0;exitY=0.5;exitDx=0;exitDy=0;entryX=1;entryY=0.5;entryDx=0;entryDy=0;" edge="1" parent="1" source="XMz7dB00b7zc_NJ-H7u2-26" target="XMz7dB00b7zc_NJ-H7u2-3">
          <mxGeometry relative="1" as="geometry" />
        </mxCell>
        <mxCell id="XMz7dB00b7zc_NJ-H7u2-56" style="edgeStyle=orthogonalEdgeStyle;rounded=0;orthogonalLoop=1;jettySize=auto;html=1;exitX=0;exitY=0.5;exitDx=0;exitDy=0;entryX=1;entryY=0.5;entryDx=0;entryDy=0;" edge="1" parent="1" source="XMz7dB00b7zc_NJ-H7u2-33" target="XMz7dB00b7zc_NJ-H7u2-3">
          <mxGeometry relative="1" as="geometry" />
        </mxCell>
        <mxCell id="XMz7dB00b7zc_NJ-H7u2-57" style="edgeStyle=orthogonalEdgeStyle;rounded=0;orthogonalLoop=1;jettySize=auto;html=1;exitX=0;exitY=0.5;exitDx=0;exitDy=0;entryX=1;entryY=0.5;entryDx=0;entryDy=0;" edge="1" parent="1" source="XMz7dB00b7zc_NJ-H7u2-39" target="XMz7dB00b7zc_NJ-H7u2-32">
          <mxGeometry relative="1" as="geometry" />
        </mxCell>
        <mxCell id="XMz7dB00b7zc_NJ-H7u2-59" style="edgeStyle=orthogonalEdgeStyle;rounded=0;orthogonalLoop=1;jettySize=auto;html=1;exitX=0;exitY=0.5;exitDx=0;exitDy=0;entryX=1;entryY=0.5;entryDx=0;entryDy=0;" edge="1" parent="1" source="XMz7dB00b7zc_NJ-H7u2-48" target="XMz7dB00b7zc_NJ-H7u2-3">
          <mxGeometry relative="1" as="geometry" />
        </mxCell>
        <mxCell id="XMz7dB00b7zc_NJ-H7u2-60" value="&lt;font style=&quot;font-size: 18px;&quot;&gt;∞&lt;/font&gt;" style="text;html=1;align=center;verticalAlign=middle;whiteSpace=wrap;rounded=0;" vertex="1" parent="1">
          <mxGeometry x="630" y="360" width="20" height="10" as="geometry" />
        </mxCell>
        <mxCell id="XMz7dB00b7zc_NJ-H7u2-61" value="&lt;font style=&quot;font-size: 18px;&quot;&gt;∞&lt;/font&gt;" style="text;html=1;align=center;verticalAlign=middle;whiteSpace=wrap;rounded=0;" vertex="1" parent="1">
          <mxGeometry x="635" y="560" width="20" height="10" as="geometry" />
        </mxCell>
        <mxCell id="XMz7dB00b7zc_NJ-H7u2-62" value="&lt;font style=&quot;font-size: 18px;&quot;&gt;∞&lt;/font&gt;" style="text;html=1;align=center;verticalAlign=middle;whiteSpace=wrap;rounded=0;" vertex="1" parent="1">
          <mxGeometry x="630" y="895" width="20" height="10" as="geometry" />
        </mxCell>
        <mxCell id="XMz7dB00b7zc_NJ-H7u2-64" style="edgeStyle=orthogonalEdgeStyle;rounded=0;orthogonalLoop=1;jettySize=auto;html=1;exitX=0;exitY=0.5;exitDx=0;exitDy=0;entryX=0;entryY=0.5;entryDx=0;entryDy=0;" edge="1" parent="1" source="XMz7dB00b7zc_NJ-H7u2-15" target="XMz7dB00b7zc_NJ-H7u2-3">
          <mxGeometry relative="1" as="geometry" />
        </mxCell>
        <mxCell id="XMz7dB00b7zc_NJ-H7u2-65" value="&lt;font style=&quot;font-size: 18px;&quot;&gt;∞&lt;/font&gt;" style="text;html=1;align=center;verticalAlign=middle;whiteSpace=wrap;rounded=0;" vertex="1" parent="1">
          <mxGeometry x="380" y="740" width="20" height="10" as="geometry" />
        </mxCell>
        <mxCell id="XMz7dB00b7zc_NJ-H7u2-66" value="&lt;font style=&quot;font-size: 18px;&quot;&gt;∞&lt;/font&gt;" style="text;html=1;align=center;verticalAlign=middle;whiteSpace=wrap;rounded=0;" vertex="1" parent="1">
          <mxGeometry x="630" y="870" width="20" height="10" as="geometry" />
        </mxCell>
        <mxCell id="XMz7dB00b7zc_NJ-H7u2-67" value="&lt;font style=&quot;font-size: 18px;&quot;&gt;∞&lt;/font&gt;" style="text;html=1;align=center;verticalAlign=middle;whiteSpace=wrap;rounded=0;" vertex="1" parent="1">
          <mxGeometry x="890" y="590" width="20" height="10" as="geometry" />
        </mxCell>
        <mxCell id="XMz7dB00b7zc_NJ-H7u2-70" value="&lt;font style=&quot;font-size: 18px;&quot;&gt;1&lt;/font&gt;" style="text;html=1;align=center;verticalAlign=middle;whiteSpace=wrap;rounded=0;" vertex="1" parent="1">
          <mxGeometry x="590" y="360" width="20" height="10" as="geometry" />
        </mxCell>
        <mxCell id="XMz7dB00b7zc_NJ-H7u2-71" value="&lt;font style=&quot;font-size: 18px;&quot;&gt;1&lt;/font&gt;" style="text;html=1;align=center;verticalAlign=middle;whiteSpace=wrap;rounded=0;" vertex="1" parent="1">
          <mxGeometry x="590" y="360" width="20" height="10" as="geometry" />
        </mxCell>
        <mxCell id="XMz7dB00b7zc_NJ-H7u2-72" value="&lt;font style=&quot;font-size: 18px;&quot;&gt;1&lt;/font&gt;" style="text;html=1;align=center;verticalAlign=middle;whiteSpace=wrap;rounded=0;" vertex="1" parent="1">
          <mxGeometry x="400" y="360" width="20" height="10" as="geometry" />
        </mxCell>
        <mxCell id="XMz7dB00b7zc_NJ-H7u2-73" value="&lt;font style=&quot;font-size: 18px;&quot;&gt;1&lt;/font&gt;" style="text;html=1;align=center;verticalAlign=middle;whiteSpace=wrap;rounded=0;" vertex="1" parent="1">
          <mxGeometry x="860" y="840" width="20" height="10" as="geometry" />
        </mxCell>
        <mxCell id="XMz7dB00b7zc_NJ-H7u2-74" value="&lt;font style=&quot;font-size: 18px;&quot;&gt;1&lt;/font&gt;" style="text;html=1;align=center;verticalAlign=middle;whiteSpace=wrap;rounded=0;" vertex="1" parent="1">
          <mxGeometry x="570" y="710" width="20" height="10" as="geometry" />
        </mxCell>
        <mxCell id="XMz7dB00b7zc_NJ-H7u2-78" style="edgeStyle=orthogonalEdgeStyle;rounded=0;orthogonalLoop=1;jettySize=auto;html=1;exitX=0;exitY=0.5;exitDx=0;exitDy=0;entryX=1.004;entryY=0.693;entryDx=0;entryDy=0;entryPerimeter=0;" edge="1" parent="1" source="XMz7dB00b7zc_NJ-H7u2-34" target="XMz7dB00b7zc_NJ-H7u2-14">
          <mxGeometry relative="1" as="geometry" />
        </mxCell>
      </root>
    </mxGraphModel>
  </diagram>
</mxfile>
